<svg width="46" height="34" viewBox="0 0 46 34" fill="none" xmlns="http://www.w3.org/2000/svg">
<path d="M6.64571 0.0589569C2.59564 4.30385 0.120605 10.1406 0.120605 16.6258C0.120605 23.1111 2.53939 29.1247 6.64571 33.3696L10.6958 29.1247C7.65822 25.941 5.74569 21.5193 5.74569 16.5669C5.74569 11.6735 7.60197 7.42857 10.6958 4.2449L6.64571 0V0.0589569ZM38.6525 0.0589569L34.6024 4.30385C37.6399 7.48753 39.5525 11.7324 39.5525 16.6258C39.5525 21.5193 37.6962 25.941 34.6024 29.1837L38.6525 33.4286C42.7025 29.1837 45.1776 23.1701 45.1776 16.6848C45.1776 10.1995 42.7588 4.36281 38.6525 0.117914V0.0589569ZM14.7458 8.37188C12.7208 10.4943 11.427 13.4422 11.427 16.6848C11.427 19.9274 12.7208 23.0522 14.7458 25.1746L18.6271 20.9297C17.6146 19.8685 17.0521 18.3356 17.0521 16.6848C17.0521 15.034 17.6146 13.737 18.6271 12.6168L14.7458 8.37188ZM30.5523 8.37188L26.671 12.6168C27.6835 13.678 28.246 15.034 28.246 16.6848C28.246 18.3356 27.6835 19.8685 26.671 20.9297L30.5523 25.1746C32.5774 23.0522 33.8711 19.9274 33.8711 16.6848C33.8711 13.4422 32.5774 10.4943 30.5523 8.37188Z" fill="black"/>
</svg>
