<svg width="42" height="36" viewBox="0 0 42 36" fill="none" xmlns="http://www.w3.org/2000/svg">
<path d="M3.03115 0C1.59128 0 0.459961 1.13143 0.459961 2.57143C0.459961 4.01143 1.59128 5.14286 3.03115 5.14286C4.47101 5.14286 5.60233 4.01143 5.60233 2.57143C5.60233 1.13143 4.47101 0 3.03115 0ZM10.7447 0V5.14286H41.5989V0H10.7447ZM3.03115 10.2857C1.59128 10.2857 0.459961 11.4171 0.459961 12.8571C0.459961 14.2971 1.59128 15.4286 3.03115 15.4286C4.47101 15.4286 5.60233 14.2971 5.60233 12.8571C5.60233 11.4171 4.47101 10.2857 3.03115 10.2857ZM10.7447 10.2857V15.4286H41.5989V10.2857H10.7447ZM3.03115 20.5714C1.59128 20.5714 0.459961 21.7029 0.459961 23.1429C0.459961 24.5829 1.59128 25.7143 3.03115 25.7143C4.47101 25.7143 5.60233 24.5829 5.60233 23.1429C5.60233 21.7029 4.47101 20.5714 3.03115 20.5714ZM10.7447 20.5714V25.7143H41.5989V20.5714H10.7447ZM3.03115 30.8571C1.59128 30.8571 0.459961 31.9886 0.459961 33.4286C0.459961 34.8686 1.59128 36 3.03115 36C4.47101 36 5.60233 34.8686 5.60233 33.4286C5.60233 31.9886 4.47101 30.8571 3.03115 30.8571ZM10.7447 30.8571V36H41.5989V30.8571H10.7447Z" fill="black"/>
</svg>
