<svg width="34" height="35" viewBox="0 0 34 35" fill="none" xmlns="http://www.w3.org/2000/svg">
<path d="M32.796 31.1688L26.5517 24.8125C28.5664 22.1921 29.6595 18.9562 29.6555 15.625C29.6555 12.6583 28.7938 9.75819 27.1794 7.29145C25.5649 4.82472 23.2703 2.90213 20.5856 1.76681C17.9009 0.631499 14.9467 0.334449 12.0966 0.913228C9.24658 1.49201 6.62862 2.92062 4.57384 5.0184C2.51906 7.11619 1.11974 9.78894 0.552826 12.6987C-0.0140864 15.6084 0.276874 18.6244 1.38891 21.3653C2.50095 24.1061 4.38412 26.4488 6.80029 28.097C9.21646 29.7453 12.0571 30.625 14.963 30.625C18.2259 30.6292 21.3955 29.5131 23.9621 27.4563L30.1881 33.8313C30.3588 34.007 30.5619 34.1465 30.7857 34.2417C31.0095 34.3369 31.2496 34.3859 31.492 34.3859C31.7345 34.3859 31.9745 34.3369 32.1983 34.2417C32.4221 34.1465 32.6253 34.007 32.796 33.8313C32.9681 33.6569 33.1048 33.4496 33.198 33.2211C33.2912 32.9926 33.3393 32.7475 33.3393 32.5C33.3393 32.2525 33.2912 32.0074 33.198 31.7789C33.1048 31.5504 32.9681 31.3431 32.796 31.1688ZM3.94364 15.625C3.94364 13.4 4.58991 11.2249 5.80073 9.37484C7.01156 7.52479 8.73255 6.08285 10.7461 5.23136C12.7596 4.37988 14.9752 4.15709 17.1128 4.59117C19.2503 5.02526 21.2138 6.09671 22.7549 7.67006C24.2959 9.2434 25.3454 11.248 25.7706 13.4302C26.1958 15.6125 25.9776 17.8745 25.1436 19.9302C24.3095 21.9859 22.8972 23.7429 21.085 24.979C19.2729 26.2152 17.1424 26.875 14.963 26.875C12.0405 26.875 9.23766 25.6897 7.17113 23.58C5.1046 21.4702 3.94364 18.6087 3.94364 15.625Z" fill="#231F20"/>
</svg>
